<?xml version="1.0" standalone="no"?>
<!DOCTYPE svg PUBLIC "-//W3C//DTD SVG 20010904//EN"
 "http://www.w3.org/TR/2001/REC-SVG-20010904/DTD/svg10.dtd">
<svg version="1.0" xmlns="http://www.w3.org/2000/svg"
 width="372.000000pt" height="372.000000pt" viewBox="0 0 372.000000 372.000000"
 preserveAspectRatio="xMidYMid meet">
<metadata>
Created by potrace 1.11, written by Peter Selinger 2001-2013
</metadata>
<g transform="translate(0.000000,372.000000) scale(0.100000,-0.100000)"
fill="#000000" stroke="none">
<path d="M2695 3591 c-3 -5 -19 -8 -36 -6 -28 4 -30 3 -18 -13 12 -15 11 -16
-4 -2 -11 10 -32 14 -67 12 -27 -2 -48 -7 -46 -11 2 -3 -14 -5 -36 -3 -28 3
-38 1 -34 -7 5 -7 1 -9 -8 -5 -20 8 -115 -15 -141 -33 -19 -14 -19 -15 5 -8
50 15 55 15 30 3 -147 -71 -186 -92 -229 -121 -58 -39 -169 -143 -225 -212
l-39 -47 -76 78 c-105 109 -178 165 -290 222 -83 43 -220 99 -244 100 -11 0
-88 13 -122 20 -94 19 -308 1 -388 -33 -19 -8 -37 -12 -40 -9 -12 12 -193 -85
-282 -151 -55 -41 -153 -149 -202 -223 -56 -83 -123 -222 -123 -254 0 -10 -5
-18 -11 -18 -5 0 -8 -4 -5 -9 4 -5 2 -11 -3 -13 -4 -1 -11 -14 -15 -28 -6 -19
-5 -21 3 -10 7 9 11 10 11 3 0 -6 -5 -15 -10 -18 -6 -4 -8 -10 -5 -14 2 -5 -2
-44 -11 -87 -36 -190 -4 -455 73 -596 14 -26 23 -56 20 -67 -3 -15 -1 -18 11
-14 9 4 13 2 9 -4 -4 -5 0 -19 8 -29 8 -10 15 -25 15 -33 0 -7 8 -21 18 -30
11 -9 25 -28 33 -42 33 -62 186 -229 210 -229 8 0 8 4 -1 15 -7 8 -9 15 -4 15
4 0 -5 15 -22 32 -23 27 -24 29 -3 10 32 -28 37 -28 31 3 -2 14 -9 22 -14 19
-6 -4 -5 4 2 16 10 20 10 22 -3 17 -11 -4 -13 0 -10 14 3 10 10 19 15 19 5 0
-4 16 -20 36 -18 21 -28 43 -25 52 5 12 1 14 -15 10 -14 -4 -20 -2 -16 4 4 6
3 13 -2 17 -17 12 -69 96 -112 181 -24 47 -40 76 -37 64 3 -13 1 -21 -7 -21
-7 0 -13 13 -14 28 -1 17 3 26 9 22 6 -4 8 3 3 18 -23 78 -57 272 -39 221 3
-6 9 -10 14 -6 5 3 9 -1 10 -8 1 -28 8 -74 15 -98 4 -14 8 -30 10 -37 8 -39
32 -97 66 -161 22 -40 37 -79 34 -87 -3 -8 2 -18 10 -23 9 -5 15 -12 14 -16
-1 -4 9 -20 22 -34 38 -44 60 -82 47 -82 -12 0 -4 -14 9 -16 48 -10 97 -59 73
-73 -8 -5 -6 -13 5 -27 15 -18 15 -18 8 5 l-6 24 25 -19 c14 -11 32 -31 41
-45 10 -17 24 -26 41 -26 15 0 22 4 19 11 -4 6 5 -1 20 -16 15 -16 29 -28 32
-28 7 0 -25 44 -111 155 -181 233 -219 306 -268 520 -18 83 -11 266 13 331 5
13 8 24 6 24 -2 0 4 27 14 60 10 33 16 60 14 60 -9 0 48 114 84 167 135 199
366 315 613 307 97 -2 129 -7 189 -26 134 -41 258 -118 364 -225 70 -71 123
-142 220 -295 l62 -97 81 132 c45 73 98 157 117 187 39 62 122 163 140 169 13
5 129 82 136 91 3 3 23 13 45 23 40 18 71 24 133 26 17 0 32 6 32 12 0 5 -5 7
-12 3 -6 -4 -9 -3 -5 2 5 8 83 10 212 5 40 -2 46 -4 30 -12 -15 -7 -9 -8 23
-5 23 2 40 1 37 -3 -2 -4 2 -8 10 -8 8 0 15 4 15 9 0 11 23 5 100 -24 112 -43
258 -142 263 -179 3 -18 41 -69 53 -69 4 0 -5 15 -22 32 -19 22 -21 26 -5 13
50 -42 155 -213 149 -243 -1 -4 2 -18 5 -32 4 -14 9 -37 11 -52 3 -15 7 -31
10 -36 3 -4 8 -52 11 -106 3 -54 6 -101 7 -105 1 -3 -1 -13 -5 -21 -11 -30
-13 -80 -3 -80 7 0 7 -3 -1 -8 -6 -4 -19 -40 -28 -80 -9 -39 -21 -74 -26 -77
-5 -4 -9 -14 -9 -24 0 -10 -8 -29 -19 -42 -10 -13 -22 -35 -26 -49 -12 -41
-91 -162 -129 -199 -20 -19 -36 -40 -36 -45 -1 -15 -172 -212 -182 -208 -4 1
-8 -2 -8 -6 0 -5 -9 -20 -20 -33 -12 -13 -46 -60 -77 -106 -31 -46 -60 -83
-65 -83 -4 0 -8 -9 -8 -20 0 -11 -5 -20 -11 -20 -5 0 -7 -5 -3 -12 4 -7 3 -8
-4 -4 -6 4 -18 -6 -27 -24 -8 -16 -13 -30 -10 -30 3 0 1 -9 -5 -20 -8 -16 -8
-20 4 -20 9 0 12 -7 9 -19 -9 -36 14 -30 48 12 51 61 79 103 79 118 0 25 135
195 235 294 33 33 95 102 137 154 44 54 86 96 98 98 18 3 19 0 10 -20 -8 -16
-4 -14 14 8 14 17 26 35 26 40 0 6 -4 4 -9 -4 -6 -10 -10 -10 -16 -1 -5 8 -11
6 -21 -7 -7 -10 -14 -13 -14 -7 0 15 25 36 33 27 4 -3 9 1 13 10 3 9 12 13 20
10 8 -3 22 3 30 13 13 17 13 16 3 -11 -12 -35 -44 -89 -73 -126 -12 -14 -32
-40 -46 -59 -14 -18 -38 -47 -53 -64 -23 -25 -62 -83 -45 -66 40 39 176 205
195 238 14 23 29 42 34 42 5 0 9 7 9 16 0 8 5 12 10 9 6 -4 -2 -29 -21 -63
-18 -31 -37 -67 -44 -80 -7 -13 -30 -42 -52 -65 -21 -23 -52 -60 -68 -82 -17
-22 -33 -41 -37 -43 -3 -2 -18 -20 -33 -40 -39 -55 129 123 183 193 25 33 52
64 59 68 7 5 11 12 8 18 -3 5 1 6 9 3 18 -7 21 -20 6 -29 -5 -3 -10 -11 -10
-17 0 -19 66 73 109 151 27 48 32 62 27 70 -3 4 9 23 25 41 25 27 30 39 25 64
-4 19 -3 26 3 18 5 -9 14 7 25 50 10 35 20 72 23 83 5 18 4 19 -13 5 -19 -14
-19 -14 0 7 37 44 40 262 6 435 -71 355 -294 623 -630 756 -92 37 -152 54
-145 41 4 -5 -3 -9 -15 -9 -12 0 -19 4 -16 9 7 11 -29 21 -41 11 -4 -4 -39 -5
-78 -2 -48 3 -64 7 -50 13 16 6 17 8 3 8 -9 1 -19 -3 -23 -8z m-1176 -204 c0
-9 -2 -8 -6 1 -2 6 -10 9 -15 6 -7 -4 -8 -2 -4 5 9 13 26 5 25 -12z m46 -17
c4 -6 1 -9 -7 -8 -7 2 -12 -3 -10 -10 1 -8 -2 -11 -8 -7 -8 5 -7 11 1 21 14
17 16 17 24 4z m10 -29 c-3 -6 11 -21 32 -35 21 -15 34 -26 29 -26 -17 0 -76
51 -71 61 4 5 8 9 11 9 3 0 3 -4 -1 -9z m19 -160 c-3 -3 -15 6 -27 18 l-22 24
27 -19 c14 -10 24 -21 22 -23z m-54 -46 c19 -19 32 -35 29 -35 -3 0 -20 16
-39 35 -19 19 -32 35 -29 35 3 0 20 -16 39 -35z m270 -30 c14 -19 14 -19 -2
-6 -10 7 -18 18 -18 24 0 6 1 8 3 6 1 -2 9 -13 17 -24z m325 -5 c-3 -5 -12
-10 -18 -10 -7 0 -6 4 3 10 19 12 23 12 15 0z m-445 -120 c6 -14 8 -20 3 -15
-4 6 -24 28 -43 49 l-35 40 32 -25 c17 -13 36 -35 43 -49z m-1523 -462 c-3 -7
-5 -2 -5 12 0 14 2 19 5 13 2 -7 2 -19 0 -25z m-81 -20 c-1 -7 -5 -18 -9 -25
-4 -6 -2 -13 5 -15 8 -3 6 -7 -5 -11 -18 -7 -25 17 -7 28 5 3 7 12 3 20 -3 8
-1 15 5 15 6 0 9 -6 8 -12z m16 -94 c-9 -16 -10 -14 -9 8 1 15 6 23 11 18 4
-4 4 -16 -2 -26z m13 -53 c-3 -5 -1 -12 5 -16 5 -3 10 -14 10 -23 0 -12 -4
-10 -14 8 -12 23 -12 40 0 40 3 0 3 -4 -1 -9z m22 -83 c-3 -8 -6 -5 -6 6 -1
11 2 17 5 13 3 -3 4 -12 1 -19z m3531 -13 c-3 -3 -9 2 -12 12 -6 14 -5 15 5 6
7 -7 10 -15 7 -18z m-3509 -27 c1 7 6 10 11 7 8 -5 8 -11 0 -20 -6 -7 -8 -21
-5 -31 3 -11 -1 -5 -9 11 -8 17 -15 37 -15 45 0 10 3 8 9 -5 5 -11 9 -14 9 -7z
m-37 -70 c-4 -16 -2 -19 8 -13 9 6 11 4 5 -4 -10 -18 -29 3 -22 23 9 24 16 19
9 -6z m3511 -23 c-3 -9 -8 -14 -10 -11 -3 3 -2 9 2 15 9 16 15 13 8 -4z
m-3434 -6 c5 7 12 1 19 -16 11 -26 11 -27 -3 -9 -11 14 -15 16 -15 5 0 -12 -2
-12 -10 1 -5 8 -9 20 -9 25 0 6 3 4 6 -4 4 -9 7 -10 12 -2z m-58 -26 c-12 -20
-14 -14 -5 12 4 9 9 14 11 11 3 -2 0 -13 -6 -23z m163 11 c3 -8 2 -12 -4 -9
-6 3 -10 10 -10 16 0 14 7 11 14 -7z m-94 -30 c0 -8 -19 -13 -24 -6 -3 5 1 9
9 9 8 0 15 -2 15 -3z m114 -10 c10 -25 -1 -29 -14 -5 -6 12 -7 21 -1 21 5 0
12 -7 15 -16z m31 -62 c-8 -8 -25 10 -19 20 4 6 9 5 15 -3 4 -7 6 -15 4 -17z
m3060 7 c-4 -5 -12 -9 -18 -8 -9 0 -8 2 1 6 6 2 9 10 6 15 -4 7 -2 8 5 4 6 -4
9 -12 6 -17z m65 -19 c0 -5 -2 -10 -4 -10 -3 0 -8 5 -11 10 -3 6 -1 10 4 10 6
0 11 -4 11 -10z m-3084 -57 c-4 -4 -16 3 -26 17 -29 37 -24 49 7 18 15 -15 23
-31 19 -35z m-126 7 c6 -11 8 -20 6 -20 -3 0 -10 9 -16 20 -6 11 -8 20 -6 20
3 0 10 -9 16 -20z m3236 -32 c4 -7 4 -10 -1 -6 -4 4 -14 3 -22 -4 -11 -8 -12
-7 -7 6 7 19 20 21 30 4z m-3162 -44 c3 -8 2 -12 -4 -9 -6 3 -10 10 -10 16 0
14 7 11 14 -7z m-45 -28 c-3 -3 -11 5 -18 17 -13 21 -12 21 5 5 10 -10 16 -20
13 -22z m91 -53 c0 -19 -13 -9 -16 12 -1 8 2 13 7 9 5 -3 9 -12 9 -21z m195
-53 c3 -5 2 -10 -4 -10 -5 0 -13 5 -16 10 -3 6 -2 10 4 10 5 0 13 -4 16 -10z"/>
<path d="M2748 3593 c7 -3 16 -2 19 1 4 3 -2 6 -13 5 -11 0 -14 -3 -6 -6z"/>
<path d="M963 3583 c9 -2 23 -2 30 0 6 3 -1 5 -18 5 -16 0 -22 -2 -12 -5z"/>
<path d="M12 2730 c0 -14 2 -19 5 -12 2 6 2 18 0 25 -3 6 -5 1 -5 -13z"/>
<path d="M1975 2619 c-68 -11 -165 -40 -165 -50 0 -5 -7 -6 -15 -3 -8 4 -15 2
-15 -3 0 -5 -8 -9 -18 -10 -24 -2 -92 -42 -92 -55 0 -5 -4 -7 -9 -4 -11 7 -53
-39 -44 -49 5 -4 3 -5 -4 -1 -15 8 -37 -30 -27 -46 4 -7 3 -8 -4 -4 -15 9 -35
-31 -29 -60 2 -13 0 -24 -4 -24 -5 0 -9 -5 -9 -11 0 -5 6 -7 13 -3 9 6 9 4 -1
-8 -8 -10 -9 -18 -3 -22 6 -4 7 -14 4 -23 -4 -11 -3 -14 5 -9 8 5 12 -1 12
-16 0 -28 71 -252 93 -294 32 -61 111 -76 185 -34 91 51 130 186 88 306 -10
29 -11 22 -11 -59 0 -95 -9 -122 -57 -170 -22 -22 -80 -47 -105 -46 -10 0 -3
5 14 10 88 26 145 146 112 239 -6 19 -7 14 -3 -17 12 -94 -53 -203 -120 -203
-15 0 -25 22 -56 125 -54 178 -55 242 -5 295 53 56 221 119 330 125 79 4 118
-14 182 -80 68 -71 98 -79 285 -77 l148 1 -5 -42 c-6 -49 -16 -87 -38 -138
-16 -36 -52 -57 -132 -75 -16 -4 -34 -10 -40 -14 -13 -10 -153 -30 -227 -33
-32 -1 -39 -17 -7 -17 11 0 17 -5 14 -10 -4 -7 20 -9 72 -6 175 9 326 43 357
79 52 61 102 230 85 290 -13 49 -38 59 -168 63 -64 2 -136 6 -161 9 -44 6 -90
28 -90 43 0 30 -134 122 -178 122 -10 0 -22 3 -26 7 -10 10 -75 12 -131 2z"/>
<path d="M2746 2255 c-3 -9 -6 -24 -5 -33 0 -9 5 -4 10 12 9 32 6 48 -5 21z"/>
<path d="M34 2203 c9 -36 73 -173 81 -173 3 0 4 3 2 8 -12 21 -56 122 -66 155
-14 43 -26 50 -17 10z"/>
<path d="M1551 2204 c0 -11 3 -14 6 -6 3 7 2 16 -1 19 -3 4 -6 -2 -5 -13z"/>
<path d="M1570 2125 c0 -5 5 -17 10 -25 5 -8 10 -10 10 -5 0 6 -5 17 -10 25
-5 8 -10 11 -10 5z"/>
<path d="M1591 2064 c0 -11 3 -14 6 -6 3 7 2 16 -1 19 -3 4 -6 -2 -5 -13z"/>
<path d="M2655 1989 c-27 -44 -63 -90 -80 -103 -31 -24 -35 -24 -124 -8 -80
14 -178 -1 -252 -39 -37 -18 -41 -19 -72 -3 -17 10 -62 46 -99 82 -38 36 -68
60 -68 54 0 -16 0 -14 -16 -74 -22 -81 -28 -177 -14 -228 6 -25 27 -69 46 -97
25 -39 34 -64 34 -94 0 -49 39 -124 70 -134 36 -11 31 -20 -104 -169 -99 -109
-171 -207 -210 -285 -75 -148 -90 -232 -91 -491 0 -171 8 -200 61 -221 16 -5
142 -7 322 -4 746 14 704 10 776 81 65 63 90 128 89 229 -1 101 -65 206 -156
253 -65 33 -72 21 -8 -14 28 -15 49 -29 47 -31 -2 -2 -21 6 -42 18 l-39 21 29
-23 c80 -63 116 -124 122 -205 6 -90 -38 -179 -112 -225 -43 -26 -69 -27 -454
-15 -218 7 -256 10 -267 24 -12 16 -13 16 -7 -1 6 -16 -2 -17 -112 -13 -66 2
-124 5 -131 5 -18 1 -6 256 18 381 16 81 108 260 163 316 34 34 131 147 129
150 -2 2 16 22 40 45 23 23 33 36 22 28 -11 -7 0 5 23 28 24 23 41 47 37 53
-3 6 -1 9 7 8 8 -2 13 7 13 24 -1 14 3 24 7 22 10 -7 10 -1 -2 31 -6 16 -14
23 -22 19 -6 -4 -8 -3 -4 4 8 13 -33 44 -47 35 -6 -3 -7 -1 -3 5 6 11 -6 16
-26 13 -5 0 -7 5 -5 12 1 6 -3 11 -9 10 -6 -1 -11 4 -11 12 0 8 4 12 9 9 4 -3
8 2 8 10 0 8 -5 18 -10 21 -6 4 -8 11 -4 16 8 13 -15 69 -29 69 -6 0 -7 3 -4
7 10 9 -14 34 -26 26 -6 -3 -7 -1 -3 5 4 7 0 22 -8 34 -9 12 -16 18 -16 13 0
-6 -5 -3 -10 5 -5 8 -9 29 -9 45 2 30 2 30 9 -5 7 -32 7 -32 9 -7 1 27 1 27
31 12 17 -9 30 -13 30 -11 0 3 -13 12 -30 21 -16 9 -30 20 -30 25 0 5 20 -3
45 -16 59 -33 86 -32 170 6 80 37 170 46 243 24 62 -18 80 -11 141 51 58 61
69 60 72 -5 4 -75 -2 -133 -16 -167 -9 -20 -14 -38 -12 -40 6 -6 36 70 46 117
12 57 5 150 -14 198 l-16 36 -16 -25 c-9 -13 -40 -47 -69 -76 l-53 -52 -43 14
c-24 8 -52 16 -63 18 -16 4 -15 5 5 6 14 0 41 -4 60 -9 34 -10 37 -9 75 33 22
23 55 65 74 92 l33 49 19 -37 c45 -87 58 -206 34 -307 -5 -25 -5 -25 5 -2 37
84 25 215 -32 339 l-23 51 -50 -79z m-231 -127 c3 -5 -1 -9 -9 -9 -8 0 -12 4
-9 9 3 4 7 8 9 8 2 0 6 -4 9 -8z m-97 -8 c-3 -3 -12 -4 -19 -1 -8 3 -5 6 6 6
11 1 17 -2 13 -5z"/>
<path d="M1525 1878 c-50 -92 -188 -276 -266 -358 -24 -25 -93 -88 -152 -139
-167 -144 -237 -238 -291 -388 -57 -162 -79 -291 -62 -368 3 -11 8 -35 12 -54
l7 -33 -41 6 c-122 17 -208 118 -219 260 l-5 61 26 -30 26 -30 -7 34 c-4 25
-3 32 5 27 8 -5 12 4 12 28 0 20 5 36 10 36 6 0 10 6 10 14 0 8 24 44 53 80
63 81 157 233 156 255 0 9 -4 5 -10 -9 -6 -14 -24 -47 -41 -73 -26 -41 -33
-46 -40 -32 -8 13 -13 14 -24 4 -21 -17 -18 19 4 56 48 78 76 177 73 252 -1
28 -39 69 -71 78 l-25 8 27 -26 c18 -17 28 -36 28 -54 0 -32 -44 -133 -58
-133 -12 0 -22 49 -12 55 16 10 7 53 -11 58 -11 3 -17 2 -14 -3 5 -9 -37 -100
-70 -147 -12 -19 -47 -60 -77 -91 -77 -82 -95 -107 -118 -170 -57 -151 -15
-351 98 -467 63 -65 122 -96 185 -99 30 -2 58 -5 63 -8 16 -10 75 4 71 16 -2
6 -20 11 -40 11 -53 0 -53 10 -2 22 45 10 46 10 62 -21 9 -17 24 -40 34 -51
56 -60 68 -72 97 -92 35 -26 69 -31 37 -7 -19 16 -19 16 5 9 l25 -7 -25 18
c-42 31 -80 77 -105 129 -49 100 -49 177 -1 314 75 214 120 277 321 460 39 34
63 60 55 55 -9 -4 -12 -3 -7 2 5 5 12 8 15 7 12 -3 32 19 26 28 -3 5 0 8 8 7
7 -2 12 3 10 10 -1 6 4 11 10 10 7 -2 12 3 10 10 -1 8 2 11 7 8 5 -3 15 2 22
11 10 12 11 15 1 9 -7 -4 9 14 35 41 27 26 59 64 72 83 21 32 20 32 -11 -5
-72 -86 -87 -96 -36 -25 99 140 167 252 195 324 15 39 31 72 34 74 4 2 4 12 2
23 -5 17 -10 12 -30 -28 -24 -46 -130 -193 -140 -193 -3 0 7 19 21 43 35 55
100 187 95 191 -2 2 -26 -36 -54 -86z m-858 -801 c-35 -50 -48 -61 -68 -59
-16 2 -31 -6 -47 -25 -22 -26 -23 -27 -11 -3 20 40 93 145 104 149 6 1 9 8 7
14 -2 6 4 5 12 -2 13 -11 17 -10 22 4 6 16 8 16 16 1 7 -12 -2 -32 -35 -79z"/>
<path d="M666 1117 c-27 -36 -35 -58 -13 -35 19 19 50 68 44 68 -3 0 -17 -15
-31 -33z"/>
<path d="M3318 1873 c-8 -10 -25 -34 -37 -53 l-23 -35 31 35 c31 35 55 70 48
70 -2 0 -11 -8 -19 -17z"/>
<path d="M1718 1843 c7 -3 16 -2 19 1 4 3 -2 6 -13 5 -11 0 -14 -3 -6 -6z"/>
<path d="M1798 1843 c7 -3 16 -2 19 1 4 3 -2 6 -13 5 -11 0 -14 -3 -6 -6z"/>
<path d="M3211 1736 l-24 -31 28 27 c16 15 27 29 24 31 -2 3 -15 -10 -28 -27z"/>
<path d="M3310 1685 c-24 -25 -42 -45 -39 -45 3 0 25 20 49 45 24 25 42 45 39
45 -3 0 -25 -20 -49 -45z"/>
<path d="M3064 1401 c-33 -38 -115 -146 -129 -170 -5 -10 -4 -12 4 -7 16 10
165 206 159 210 -2 1 -17 -14 -34 -33z"/>
<path d="M806 1313 c-6 -14 -5 -15 5 -6 7 7 10 15 7 18 -3 3 -9 -2 -12 -12z"/>
<path d="M2945 1300 c-10 -11 -16 -22 -14 -24 2 -2 12 7 22 20 22 29 17 32 -8
4z"/>
<path d="M2520 1260 c0 -5 4 -10 9 -10 5 0 12 -7 15 -16 5 -14 4 -15 -9 -4
-23 19 -27 7 -10 -33 19 -45 19 -118 1 -177 -8 -25 -15 -39 -15 -31 -1 11 -7
9 -21 -7 -11 -12 -20 -24 -20 -28 0 -4 -12 -32 -27 -63 -29 -63 -56 -154 -42
-145 5 3 9 0 9 -5 0 -6 -4 -11 -10 -11 -12 0 -12 -86 -1 -115 5 -13 8 4 7 45
-1 46 3 64 11 63 9 -2 10 4 3 23 -13 33 -12 43 1 24 8 -11 9 -7 4 17 -7 37 4
66 23 54 10 -6 9 -17 -1 -52 -24 -80 2 -206 57 -274 30 -37 38 -31 26 20 -5
22 -10 55 -10 74 0 28 2 32 15 21 8 -7 13 -16 10 -20 -3 -4 2 -13 10 -20 8 -7
15 -18 15 -25 0 -7 7 -18 15 -25 12 -10 15 -9 15 4 0 9 -7 30 -15 46 -23 45
-20 99 9 167 78 185 74 358 -10 466 -34 43 -64 61 -64 37z"/>
<path d="M2899 1243 c-13 -16 -12 -17 4 -4 9 7 17 15 17 17 0 8 -8 3 -21 -13z"/>
<path d="M1270 1041 c-8 -5 -37 -14 -64 -20 -27 -7 -68 -26 -90 -43 -23 -17
-32 -27 -21 -23 11 4 36 14 55 21 19 7 60 13 90 12 l55 -1 -55 -7 c-53 -7
-113 -30 -124 -48 -3 -5 16 2 42 15 99 50 219 12 268 -87 41 -82 20 -168 -79
-315 -42 -63 -71 -93 -174 -177 -35 -28 -61 -53 -59 -55 2 -3 76 12 165 32 88
20 169 34 179 31 25 -8 38 -40 41 -103 2 -45 0 -53 -16 -54 -10 0 -29 -2 -43
-4 -14 -2 -79 -6 -145 -10 -97 -6 -132 -4 -184 10 -50 13 -66 14 -75 4 -8 -9
-8 -10 2 -5 6 4 12 3 12 -2 0 -13 78 -40 161 -57 20 -4 227 -19 254 -18 37 1
106 11 112 16 12 12 15 174 4 214 -15 55 -62 101 -111 109 l-38 6 39 72 c80
150 84 277 11 376 -31 41 -47 55 -84 72 -16 7 -28 16 -28 20 0 4 -7 4 -17 1
-9 -4 -14 -2 -10 3 3 6 -9 8 -30 6 -25 -3 -34 -1 -29 7 8 13 7 13 -14 2z"/>
<path d="M620 720 c0 -5 5 -10 11 -10 5 0 7 5 4 10 -3 6 -8 10 -11 10 -2 0 -4
-4 -4 -10z"/>
<path d="M851 694 c0 -11 3 -14 6 -6 3 7 2 16 -1 19 -3 4 -6 -2 -5 -13z"/>
<path d="M2358 293 c6 -2 18 -2 25 0 6 3 1 5 -13 5 -14 0 -19 -2 -12 -5z"/>
</g>
</svg>
